{
	"asset":{
		"generator":"Khronos glTF Blender I/O v3.6.28",
		"version":"2.0"
	},
	"scene":0,
	"scenes":[
		{
			"name":"Scene",
			"nodes":[
				0,
				1,
				2
			]
		}
	],
	"nodes":[
		{
			"mesh":0,
			"name":"Cube"
		},
		{
			"mesh":1,
			"name":"Suzanne"
		},
		{
			"mesh":2,
			"name":"Suzanne.001",
			"translation":[
				-2.6566877365112305,
				-0.10574275255203247,
				-0.20223525166511536
			]
		}
	],
	"materials":[
		{
			"doubleSided":true,
			"name":"Material.003",
			"pbrMetallicRoughness":{
				"baseColorFactor":[
					0.265602707862854,
					0.8000000715255737,
					0.2682482600212097,
					1
				],
				"metallicFactor":0,
				"roughnessFactor":0.5
			}
		},
		{
			"doubleSided":true,
			"name":"Material.004",
			"pbrMetallicRoughness":{
				"baseColorFactor":[
					0.8000000715255737,
					0.433699369430542,
					0,
					1
				],
				"metallicFactor":0,
				"roughnessFactor":0.5
			}
		}
	],
	"meshes":[
		{
			"name":"Cube.001",
			"primitives":[
				{
					"attributes":{
						"POSITION":0,
						"NORMAL":1,
						"TEXCOORD_0":2
					},
					"indices":3,
					"material":0
				}
			]
		},
		{
			"name":"Suzanne.001",
			"primitives":[
				{
					"attributes":{
						"POSITION":4,
						"NORMAL":5,
						"TEXCOORD_0":6
					},
					"indices":7,
					"material":1
				}
			]
		},
		{
			"name":"Suzanne.002",
			"primitives":[
				{
					"attributes":{
						"POSITION":8,
						"NORMAL":9,
						"TEXCOORD_0":10
					},
					"indices":11,
					"material":1
				}
			]
		}
	],
	"accessors":[
		{
			"bufferView":0,
			"componentType":5126,
			"count":24,
			"max":[
				3.0646848678588867,
				0.19946223497390747,
				3.0646848678588867
			],
			"min":[
				-3.0646848678588867,
				-0.19946223497390747,
				-3.0646848678588867
			],
			"type":"VEC3"
		},
		{
			"bufferView":1,
			"componentType":5126,
			"count":24,
			"type":"VEC3"
		},
		{
			"bufferView":2,
			"componentType":5126,
			"count":24,
			"type":"VEC2"
		},
		{
			"bufferView":3,
			"componentType":5123,
			"count":36,
			"type":"SCALAR"
		},
		{
			"bufferView":4,
			"componentType":5126,
			"count":1970,
			"max":[
				1.3538063764572144,
				1.7540572881698608,
				1.1782538890838623
			],
			"min":[
				-1.3801730871200562,
				0.16269373893737793,
				-0.9203111529350281
			],
			"type":"VEC3"
		},
		{
			"bufferView":5,
			"componentType":5126,
			"count":1970,
			"type":"VEC3"
		},
		{
			"bufferView":6,
			"componentType":5126,
			"count":1970,
			"type":"VEC2"
		},
		{
			"bufferView":7,
			"componentType":5123,
			"count":2904,
			"type":"SCALAR"
		},
		{
			"bufferView":8,
			"componentType":5126,
			"count":1970,
			"max":[
				1.3895195722579956,
				1.7540572881698608,
				1.2099615335464478
			],
			"min":[
				-0.8433908820152283,
				0.16269373893737793,
				-1.2594032287597656
			],
			"type":"VEC3"
		},
		{
			"bufferView":9,
			"componentType":5126,
			"count":1970,
			"type":"VEC3"
		},
		{
			"bufferView":10,
			"componentType":5126,
			"count":1970,
			"type":"VEC2"
		},
		{
			"bufferView":11,
			"componentType":5123,
			"count":2904,
			"type":"SCALAR"
		}
	],
	"bufferViews":[
		{
			"buffer":0,
			"byteLength":288,
			"byteOffset":0,
			"target":34962
		},
		{
			"buffer":0,
			"byteLength":288,
			"byteOffset":288,
			"target":34962
		},
		{
			"buffer":0,
			"byteLength":192,
			"byteOffset":576,
			"target":34962
		},
		{
			"buffer":0,
			"byteLength":72,
			"byteOffset":768,
			"target":34963
		},
		{
			"buffer":0,
			"byteLength":23640,
			"byteOffset":840,
			"target":34962
		},
		{
			"buffer":0,
			"byteLength":23640,
			"byteOffset":24480,
			"target":34962
		},
		{
			"buffer":0,
			"byteLength":15760,
			"byteOffset":48120,
			"target":34962
		},
		{
			"buffer":0,
			"byteLength":5808,
			"byteOffset":63880,
			"target":34963
		},
		{
			"buffer":0,
			"byteLength":23640,
			"byteOffset":69688,
			"target":34962
		},
		{
			"buffer":0,
			"byteLength":23640,
			"byteOffset":93328,
			"target":34962
		},
		{
			"buffer":0,
			"byteLength":15760,
			"byteOffset":116968,
			"target":34962
		},
		{
			"buffer":0,
			"byteLength":5808,
			"byteOffset":132728,
			"target":34963
		}
	],
	"buffers":[
		{
			"byteLength":138536,
			"uri":"data:application/octet-stream;base64,"
		}
	]
}
